{"title":"Transformers Age of Extinction 2014 New Source HDTS x264 AC3 TiT","uid":10556829,"size":2144424520,"categoryP":"video","categoryS":"movies","magnet":"?xt=urn:btih:8ca378dbc8f62e04df4a4a0114b66018666c17cd&amp;dn=Transformers+Age+of+Extinction+2014+New+Source+HDTS+x264+AC3+TiT&amp;tr=udp%3A%2F%2Ftracker.openbittorrent.com%3A80&amp;tr=udp%3A%2F%2Fopen.demonii.com%3A1337&amp;tr=udp%3A%2F%2Ftracker.coppersurfer.tk%3A6969&amp;tr=udp%3A%2F%2Fexodus.desync.com%3A6969","seeders":422,"leechers":15,"uploader":"xxxlavalxxx","files":-1,"time":1405404942,"description":"[IMG]http://i.imgur.com/Qumtkcm.jpg[/IMG]\n &lt;a href=&quot;\nhttp://www.imdb.com/title/tt2109248/&quot; rel=&quot;nofollow&quot; target=&quot;_NEW&quot;&gt;\nhttp://www.imdb.com/title/tt2109248/&lt;/a&gt;\n\n\nAn automobile mechanic and his daughter make a discovery that brings down the Autobots - and a paranoid government official - on them.\n\nDirector: Michael Bay\nWriter: Ehren Kruger\nStars: Mark Wahlberg, Nicola Peltz, Jack Reynor\nGenres: Action | Adventure | Sci-Fi\nCountry: USA\nLanguage: English\n\n\n\nNice new source here. took my time to make nice as possible.. came out real well, watchable from beginning to end.. muxed line and bam, one pretty nice cam... Enjoy.\n\nGeneral\n\nFormat                                   : Matroska\nFormat version                           : Version 2\nFile size                                : 2.00 GiB\nDuration                                 : 2h 36mn\nOverall bit rate                         : 1 828 Kbps\nEncoded date                             : UTC 2014-07-14 19:52:17\n\nVideo\nID                                       : 1\nFormat                                   : AVC\nFormat/Info                              : Advanced Video Codec\nFormat profile                           : &lt;a class=&quot;__cf_email__&quot; href=&quot;/cdn-cgi/l/email-protection&quot; data-cfemail=&quot;3870515f5078740c1609&quot;&gt;[email&amp;#160;protected]&lt;/a&gt;&lt;script cf-hash='f9e31' type=&quot;text/javascript&quot;&gt;\n/* &lt;![CDATA[ */!function(){try{var t=&quot;currentScript&quot;in document?document.currentScript:function(){for(var t=document.getElementsByTagName(&quot;script&quot;),e=t.length;e--;)if(t[e].getAttribute(&quot;cf-hash&quot;))return t[e]}();if(t&amp;&amp;t.previousSibling){var e,r,n,i,c=t.previousSibling,a=c.getAttribute(&quot;data-cfemail&quot;);if(a){for(e=&quot;&quot;,r=parseInt(a.substr(0,2),16),n=2;a.length-n;n+=2)i=parseInt(a.substr(n,2),16)^r,e+=String.fromCharCode(i);e=document.createTextNode(e),c.parentNode.replaceChild(e,c)}}}catch(u){}}();/* ]]&gt; */&lt;/script&gt;\nFormat settings, CABAC                   : Yes\nFormat settings, ReFrames                : 5 frames\nCodec ID                                 : V_MPEG4/ISO/AVC\nDuration                                 : 2h 36mn\nBit rate                                 : 1 570 Kbps\nWidth                                    : 720 pixels\nHeight                                   : 304 pixels\nDisplay aspect ratio                     : 2.35:1\nFrame rate mode                          : Constant\nFrame rate                               : 23.077 fps\nColor space                              : YUV\nChroma subsampling                       : 4:2:0\nBit depth                                : 8 bits\nScan type                                : Progressive\nBits/(Pixel*Frame)                       : 0.311\nStream size                              : 1.68 GiB (84%)\nDefault                                  : Yes\nForced                                   : No\n\nAudio\nID                                       : 2\nFormat                                   : AC-3\nFormat/Info                              : Audio Coding 3\nMode extension                           : CM (complete main)\nFormat settings, Endianness              : Big\nCodec ID                                 : A_AC3\nDuration                                 : 2h 36mn\nBit rate mode                            : Constant\nBit rate                                 : 256 Kbps\nChannel(s)                               : 2 channels\nChannel positions                        : Front: L R\nSampling rate                            : 44.1 KHz\nBit depth                                : 16 bits\nCompression mode                         : Lossy\nStream size                              : 286 MiB (14%)\nDefault                                  : Yes\nForced                                   : No\n\n\n\nscreens\n &lt;a href=&quot;\nhttp://i.imgur.com/Z0TU0Er.png&quot; rel=&quot;nofollow&quot; target=&quot;_NEW&quot;&gt;\nhttp://i.imgur.com/Z0TU0Er.png&lt;/a&gt; &lt;a href=&quot;\nhttp://i.imgur.com/Q615on4.png&quot; rel=&quot;nofollow&quot; target=&quot;_NEW&quot;&gt;\nhttp://i.imgur.com/Q615on4.png&lt;/a&gt; &lt;a href=&quot;\nhttp://i.imgur.com/5hSQYKY.png&quot; rel=&quot;nofollow&quot; target=&quot;_NEW&quot;&gt;\nhttp://i.imgur.com/5hSQYKY.png&lt;/a&gt; &lt;a href=&quot;\nhttp://i.imgur.com/fiZpnRZ.png&quot; rel=&quot;nofollow&quot; target=&quot;_NEW&quot;&gt;\nhttp://i.imgur.com/fiZpnRZ.png&lt;/a&gt; &lt;a href=&quot;\nhttp://i.imgur.com/0Mkrd8p.png&quot; rel=&quot;nofollow&quot; target=&quot;_NEW&quot;&gt;\nhttp://i.imgur.com/0Mkrd8p.png&lt;/a&gt; &lt;a href=&quot;\nhttp://i.imgur.com/v8Qn3cv.png&quot; rel=&quot;nofollow&quot; target=&quot;_NEW&quot;&gt;\nhttp://i.imgur.com/v8Qn3cv.png&lt;/a&gt; &lt;a href=&quot;\nhttp://i.imgur.com/Zl7ZHAk.png&quot; rel=&quot;nofollow&quot; target=&quot;_NEW&quot;&gt;\nhttp://i.imgur.com/Zl7ZHAk.png&lt;/a&gt; &lt;a href=&quot;\nhttp://i.imgur.com/VC3kC00.png&quot; rel=&quot;nofollow&quot; target=&quot;_NEW&quot;&gt;\nhttp://i.imgur.com/VC3kC00.png&lt;/a&gt; &lt;a href=&quot;\nhttp://i.imgur.com/xf0En3U.png&quot; rel=&quot;nofollow&quot; target=&quot;_NEW&quot;&gt;\nhttp://i.imgur.com/xf0En3U.png&lt;/a&gt; &lt;a href=&quot;\nhttp://i.imgur.com/oj43T2H.png&quot; rel=&quot;nofollow&quot; target=&quot;_NEW&quot;&gt;\nhttp://i.imgur.com/oj43T2H.png&lt;/a&gt; &lt;a href=&quot;\nhttp://i.imgur.com/kVdPiox.png&quot; rel=&quot;nofollow&quot; target=&quot;_NEW&quot;&gt;\nhttp://i.imgur.com/kVdPiox.png&lt;/a&gt; &lt;a href=&quot;\nhttp://i.imgur.com/ceVSMth.png&quot; rel=&quot;nofollow&quot; target=&quot;_NEW&quot;&gt;\nhttp://i.imgur.com/ceVSMth.png&lt;/a&gt; &lt;a href=&quot;\nhttp://i.imgur.com/JgS2nfp.png&quot; rel=&quot;nofollow&quot; target=&quot;_NEW&quot;&gt;\nhttp://i.imgur.com/JgS2nfp.png&lt;/a&gt; &lt;a href=&quot;\nhttp://i.imgur.com/uGjR8cY.png&quot; rel=&quot;nofollow&quot; target=&quot;_NEW&quot;&gt;\nhttp://i.imgur.com/uGjR8cY.png&lt;/a&gt;","torrent":{"xt":"urn:btih:8ca378dbc8f62e04df4a4a0114b66018666c17cd","amp;dn":"Transformers+Age+of+Extinction+2014+New+Source+HDTS+x264+AC3+TiT","amp;tr":["udp%3A%2F%2Ftracker.openbittorrent.com%3A80","udp%3A%2F%2Fopen.demonii.com%3A1337","udp%3A%2F%2Ftracker.coppersurfer.tk%3A6969","udp%3A%2F%2Fexodus.desync.com%3A6969"],"infoHash":"8ca378dbc8f62e04df4a4a0114b66018666c17cd","infoHashBuffer":{"type":"Buffer","data":[140,163,120,219,200,246,46,4,223,74,74,1,20,182,96,24,102,108,23,205]},"announce":[],"urlList":[]}}